<?xml version="1.0" standalone="no"?>
<!DOCTYPE svg PUBLIC "-//W3C//DTD SVG 20010904//EN"
 "http://www.w3.org/TR/2001/REC-SVG-20010904/DTD/svg10.dtd">
<svg version="1.0" xmlns="http://www.w3.org/2000/svg"
 width="512.000000pt" height="512.000000pt" viewBox="0 0 512.000000 512.000000"
 preserveAspectRatio="xMidYMid meet">
<metadata>
Created by potrace 1.14, written by Peter Selinger 2001-2017
</metadata>
<g transform="translate(0.000000,512.000000) scale(0.100000,-0.100000)"
fill="#000000" stroke="none">
<path d="M2958 4135 c-2 -2 -35 -6 -75 -9 -259 -23 -535 -155 -741 -356 -9 -8
-49 -57 -89 -107 -40 -51 -81 -97 -91 -102 -9 -5 -66 -11 -127 -15 -134 -7
-251 -27 -315 -53 -8 -3 -20 -7 -27 -9 -6 -1 -53 -23 -105 -48 -236 -116 -422
-317 -524 -569 -35 -85 -52 -103 -106 -112 -71 -12 -198 -55 -273 -92 -252
-125 -410 -330 -471 -608 -15 -73 -12 -286 7 -371 64 -295 256 -533 509 -632
99 -38 141 -44 400 -58 98 -5 159 -5 1500 -5 437 0 930 0 1095 -1 285 -2 594
6 660 17 17 3 53 7 80 9 74 6 114 18 235 72 313 139 552 448 608 786 11 68 6
347 -7 413 -73 361 -324 657 -673 795 -46 18 -90 39 -99 47 -9 8 -34 62 -54
121 -46 128 -104 253 -151 323 -19 28 -34 53 -34 55 0 6 -46 59 -115 132 -164
175 -455 326 -685 357 -25 3 -53 8 -63 11 -19 6 -264 14 -269 9z"/>
</g>
</svg>
